<?xml version="1.0" encoding="UTF-8" standalone="no"?>
<!-- Created with Inkscape (http://www.inkscape.org/) -->

<svg
   xmlns:dc="http://purl.org/dc/elements/1.1/"
   xmlns:cc="http://creativecommons.org/ns#"
   xmlns:rdf="http://www.w3.org/1999/02/22-rdf-syntax-ns#"
   xmlns:svg="http://www.w3.org/2000/svg"
   xmlns="http://www.w3.org/2000/svg"
   xmlns:sodipodi="http://sodipodi.sourceforge.net/DTD/sodipodi-0.dtd"
   xmlns:inkscape="http://www.inkscape.org/namespaces/inkscape"
   width="1417.3228"
   height="1062.9921"
   id="svg2"
   version="1.1"
   inkscape:version="0.48.4 r9939"
   sodipodi:docname="benchmark-led-board-holder-lasercut.svg">
  <defs
     id="defs4" />
  <sodipodi:namedview
     id="base"
     pagecolor="#ffffff"
     bordercolor="#666666"
     borderopacity="1.0"
     inkscape:pageopacity="0.0"
     inkscape:pageshadow="2"
     inkscape:zoom="0.47290009"
     inkscape:cx="2241.7952"
     inkscape:cy="808.00093"
     inkscape:document-units="cm"
     inkscape:current-layer="layer1"
     showgrid="false"
     units="cm"
     inkscape:window-width="1366"
     inkscape:window-height="747"
     inkscape:window-x="0"
     inkscape:window-y="21"
     inkscape:window-maximized="1"
     showguides="false"
     inkscape:snap-global="false">
    <inkscape:grid
       type="xygrid"
       id="grid3874"
       empspacing="5"
       visible="true"
       enabled="true"
       snapvisiblegridlinesonly="true" />
  </sodipodi:namedview>
  <metadata
     id="metadata7">
    <rdf:RDF>
      <cc:Work
         rdf:about="">
        <dc:format>image/svg+xml</dc:format>
        <dc:type
           rdf:resource="http://purl.org/dc/dcmitype/StillImage" />
        <dc:title />
      </cc:Work>
    </rdf:RDF>
  </metadata>
  <g
     inkscape:label="Ebene 1"
     inkscape:groupmode="layer"
     id="layer1"
     transform="translate(0,10.631436)">
    <g
       id="g3807">
      <g
         transform="matrix(0,-1,1,0,1739.0075,3711.7084)"
         id="g4020">
        <rect
           y="905.87158"
           x="2389"
           height="10.629921"
           width="106.29921"
           id="rect3993"
           style="fill:none;stroke:#000000;stroke-width:1;stroke-miterlimit:4;stroke-opacity:1;stroke-dasharray:none" />
        <rect
           style="fill:none;stroke:#000000;stroke-width:1;stroke-miterlimit:4;stroke-opacity:1;stroke-dasharray:none"
           id="rect3995"
           width="106.29921"
           height="10.629921"
           x="2569"
           y="905.87158" />
      </g>
      <rect
         transform="matrix(0,-1,1,0,0,0)"
         style="fill:none;stroke:#000000;stroke-width:1.56791437;stroke-miterlimit:4;stroke-opacity:1;stroke-dasharray:none"
         id="rect3997"
         width="885.82678"
         height="1132.3921"
         x="-1622.4722"
         y="1542.313" />
      <g
         id="g4024"
         transform="matrix(0,-1,1,0,653.8697,3711.7084)">
        <rect
           style="fill:none;stroke:#000000;stroke-width:1;stroke-miterlimit:4;stroke-opacity:1;stroke-dasharray:none"
           id="rect4026"
           width="106.29921"
           height="10.629921"
           x="2389"
           y="905.87158" />
        <rect
           y="905.87158"
           x="2569"
           height="10.629921"
           width="106.29921"
           id="rect4028"
           style="fill:none;stroke:#000000;stroke-width:1;stroke-miterlimit:4;stroke-opacity:1;stroke-dasharray:none" />
      </g>
    </g>
    <rect
       style="fill:none;stroke:#000000;stroke-width:0.97475517;stroke-miterlimit:4;stroke-opacity:1;stroke-dasharray:none"
       id="rect2987"
       width="1346.4741"
       height="177.1906"
       x="28.176998"
       y="17.755096" />
    <rect
       style="fill:none;stroke:#000000;stroke-width:1;stroke-miterlimit:4;stroke-opacity:1;stroke-dasharray:none"
       id="rect2987-6"
       width="354.33072"
       height="141.73228"
       x="33.338562"
       y="212.92084" />
    <rect
       y="212.92084"
       x="433.33856"
       height="141.73228"
       width="354.33072"
       id="rect3775"
       style="fill:none;stroke:#000000;stroke-width:1;stroke-miterlimit:4;stroke-opacity:1;stroke-dasharray:none" />
    <g
       id="g4155"
       transform="matrix(1,0,0,0.65911117,-1.8422056,156.82688)">
      <path
         sodipodi:nodetypes="cccc"
         inkscape:connector-curvature="0"
         id="rect3802"
         d="m 33.33862,632.92084 c 0,0 178.17551,0.86106 177.16536,177.16536 l -177.16536,0 z"
         style="fill:none;stroke:#000000;stroke-width:1;stroke-miterlimit:4;stroke-opacity:1" />
      <path
         style="fill:none;stroke:#000000;stroke-width:1;stroke-miterlimit:4;stroke-opacity:1"
         d="m 233.33862,632.92084 c 0,0 178.17551,0.86106 177.16536,177.16536 l -177.16536,0 z"
         id="path3805"
         inkscape:connector-curvature="0"
         sodipodi:nodetypes="cccc" />
    </g>
    <rect
       y="386.92084"
       x="33.338623"
       height="141.73228"
       width="354.33072"
       id="rect3828"
       style="fill:none;stroke:#000000;stroke-width:1;stroke-miterlimit:4;stroke-opacity:1;stroke-dasharray:none" />
    <rect
       style="fill:none;stroke:#000000;stroke-width:1;stroke-miterlimit:4;stroke-opacity:1;stroke-dasharray:none"
       id="rect3830"
       width="354.33072"
       height="141.73228"
       x="433.33862"
       y="386.92084" />
    <g
       id="g3885">
      <g
         id="g3913"
         transform="translate(-897.1537,-251.20304)">
        <path
           inkscape:connector-curvature="0"
           id="path3782"
           d="m 38.06284,870.8302 0,777.6628 202.18713,0 0,-16.969 43.97969,0 0,-743.71527 -43.97969,0 0,-16.97853 z"
           style="fill:none;stroke:#000000;stroke-width:1.86467957;stroke-miterlimit:4;stroke-opacity:1;stroke-dasharray:none"
           sodipodi:nodetypes="ccccccccc" />
        <g
           transform="translate(0,446.46829)"
           id="g3909">
          <path
             inkscape:connector-curvature="0"
             id="path3834"
             d="m 86.8125,999.71356 c -14.405816,0 -26.09375,11.68794 -26.09375,26.09374 0,14.4059 11.687934,26.0626 26.09375,26.0626 12.736761,0 23.33868,-9.1158 25.625,-21.1876 l 10.25,0 0,-9.7812 -10.25,0 c -2.28632,-12.0717 -12.888239,-21.18754 -25.625,-21.18754 z"
             style="fill:none;stroke:#000000;stroke-width:0.98153263;stroke-miterlimit:4;stroke-opacity:1" />
          <path
             style="fill:none;stroke:#000000;stroke-width:0.98153263;stroke-miterlimit:4;stroke-opacity:1"
             d="m 86.59375,626.67301 c 14.40582,0 26.09375,-11.6879 26.09375,-26.0937 0,-14.4059 -11.68793,-26.0626 -26.09375,-26.0626 -12.736761,0 -23.33868,9.1158 -25.625,21.1876 l -10.25,0 0,9.7812 10.25,0 c 2.28632,12.0717 12.888239,21.1875 25.625,21.1875 z"
             id="path3901"
             inkscape:connector-curvature="0" />
        </g>
      </g>
    </g>
    <path
       style="fill:none;stroke:#000000;stroke-width:1.30208158;stroke-miterlimit:4;stroke-opacity:1;stroke-dasharray:none"
       d="M -683.875 156.8125 L -724.5 156.84375 L -724.5 397.375 L -686.875 397.375 L -686.875 411.34375 L -580.65625 411.34375 L -580.65625 397.375 L -507.03125 397.375 L -507.03125 411.34375 L -400.8125 411.34375 L -400.8125 397.375 L -370.5 397.375 L -370.5 245.09375 L -497.53125 372.15625 L -510.0625 359.625 L -370.5 220.09375 L -370.5 156.84375 L -438.28125 156.84375 L -548.25 347.28125 L -563.46875 338.5 L -458.59375 156.84375 L -554.875 156.84375 L -605.71875 346.625 L -622.8125 342.0625 L -573.1875 156.84375 L -666.15625 156.84375 L -666.15625 337.25 L -683.875 337.21875 L -683.875 156.8125 z "
       transform="translate(0,-10.631436)"
       id="path3784" />
    <g
       id="g3874">
      <g
         transform="translate(0,361.88341)"
         id="g3823">
        <g
           id="g3884"
           transform="matrix(0.99997048,0,0,0.62095077,-1464.0359,1027.0807)">
          <rect
             style="fill:none;stroke:#000000;stroke-opacity:1"
             id="rect3886"
             width="106.29921"
             height="17.716536"
             x="949"
             y="22.360664" />
          <rect
             y="22.360664"
             x="1129"
             height="17.716536"
             width="106.29921"
             id="rect3888"
             style="fill:none;stroke:#000000;stroke-opacity:1" />
        </g>
        <g
           transform="matrix(1,0,0,0.62095077,-1464.0639,247.5531)"
           id="g3890">
          <rect
             y="22.360664"
             x="949"
             height="17.716536"
             width="106.29921"
             id="rect3892"
             style="fill:none;stroke:#000000;stroke-opacity:1" />
          <rect
             style="fill:none;stroke:#000000;stroke-opacity:1"
             id="rect3894"
             width="106.29921"
             height="17.716536"
             x="1129"
             y="22.360664" />
        </g>
      </g>
      <rect
         y="611.10541"
         x="-552.72015"
         height="814.96063"
         width="354.33072"
         id="rect3810"
         style="fill:none;stroke:#000000;stroke-width:1;stroke-miterlimit:4;stroke-opacity:1;stroke-dasharray:none" />
    </g>
    <g
       id="g4188"
       transform="matrix(0,-1,1,0,2524.1626,3928.1811)"
       style="stroke-width:1;stroke-miterlimit:4;stroke-dasharray:none">
      <path
         id="rect4014"
         transform="translate(0,-10.631436)"
         d="m 3163,234.4375 0,10.125 -206.8438,0 0,1076.2813 206.8438,0 0,10 106.3125,0 0,-10 433.6875,0 0,10 106.3125,0 0,-10 66.875,0 0,-1076.2813 -66.875,0 0,-10.125 -106.3125,0 0,10.125 -433.6875,0 0,-10.125 -106.3125,0 z"
         style="color:#000000;fill:none;stroke:#000000;stroke-width:1;stroke-linecap:butt;stroke-linejoin:miter;stroke-miterlimit:4;stroke-opacity:1;stroke-dashoffset:0;marker:none;visibility:visible;display:inline;overflow:visible;enable-background:accumulate;stroke-dasharray:none"
         inkscape:connector-curvature="0" />
      <path
         id="rect4050"
         d="m 3097.7268,357.78079 636.8928,0 0,828.58561 -636.8928,0 z"
         style="color:#000000;fill:none;stroke:#000000;stroke-width:1;stroke-linecap:butt;stroke-linejoin:miter;stroke-miterlimit:4;stroke-opacity:1;stroke-dashoffset:0;marker:none;visibility:visible;display:inline;overflow:visible;enable-background:accumulate;stroke-dasharray:none"
         inkscape:connector-curvature="0" />
    </g>
    <path
       style="fill:none;stroke:#000000;stroke-width:1;stroke-miterlimit:4;stroke-opacity:1;stroke-dasharray:none"
       d="m 2428.8125,302.58731 0,0.0312 -20.2813,0 0,23.3125 20.2813,0 0,121.25 -886.0625,0 0,177.15625 886.0625,88.5625 177.1563,0 0,-31.3125 9.875,0 0,-106.3125 -9.875,0 0,-73.6875 9.875,0 0,-106.3125 -9.875,0 0,-92.6875 -177.1563,0 z"
       id="path4071"
       inkscape:connector-curvature="0" />
    <g
       id="g4089"
       transform="matrix(-1,0,0,-1,5561.5379,1728.5125)">
      <rect
         y="1473.5693"
         x="3163"
         height="10.629921"
         width="106.29921"
         id="rect4067"
         style="fill:none;stroke:#000000;stroke-width:1;stroke-miterlimit:4;stroke-opacity:1;stroke-dasharray:none" />
      <rect
         style="fill:none;stroke:#000000;stroke-width:1;stroke-miterlimit:4;stroke-opacity:1;stroke-dasharray:none"
         id="rect4087"
         width="106.29921"
         height="10.629921"
         x="3703"
         y="1473.5693" />
    </g>
    <g
       id="g4173">
      <rect
         transform="matrix(0,-1,1,0,0,0)"
         y="422.73401"
         x="-1009.2499"
         height="956.9118"
         width="52.29055"
         id="rect3957"
         style="color:#000000;fill:none;stroke:#000000;stroke-width:0.81501037;stroke-linecap:butt;stroke-linejoin:miter;stroke-miterlimit:4;stroke-opacity:1;stroke-dasharray:none;stroke-dashoffset:0;marker:none;visibility:visible;display:inline;overflow:visible;enable-background:accumulate" />
      <rect
         transform="matrix(0,-1,1,0,0,0)"
         style="color:#000000;fill:none;stroke:#000000;stroke-width:0.81501037;stroke-linecap:butt;stroke-linejoin:miter;stroke-miterlimit:4;stroke-opacity:1;stroke-dasharray:none;stroke-dashoffset:0;marker:none;visibility:visible;display:inline;overflow:visible;enable-background:accumulate"
         id="rect4143"
         width="52.29055"
         height="956.9118"
         x="-935.24994"
         y="422.73401" />
      <rect
         transform="matrix(0,-1,1,0,0,0)"
         y="422.73401"
         x="-853.24994"
         height="956.9118"
         width="52.29055"
         id="rect4145"
         style="color:#000000;fill:none;stroke:#000000;stroke-width:0.81501037;stroke-linecap:butt;stroke-linejoin:miter;stroke-miterlimit:4;stroke-opacity:1;stroke-dasharray:none;stroke-dashoffset:0;marker:none;visibility:visible;display:inline;overflow:visible;enable-background:accumulate" />
      <rect
         transform="matrix(0,-1,1,0,0,0)"
         style="color:#000000;fill:none;stroke:#000000;stroke-width:0.81501037;stroke-linecap:butt;stroke-linejoin:miter;stroke-miterlimit:4;stroke-opacity:1;stroke-dasharray:none;stroke-dashoffset:0;marker:none;visibility:visible;display:inline;overflow:visible;enable-background:accumulate"
         id="rect4147"
         width="52.29055"
         height="956.9118"
         x="-777.24994"
         y="422.73401" />
    </g>
    <path
       id="path3862"
       d="m -683.875,-137.17688 -40.625,0.0312 0,240.53125 37.625,0 0,13.96875 106.21875,0 0,-13.96875 73.625,0 0,13.96875 106.21875,0 0,-13.96875 30.3125,0 0,-152.281253 -127.03125,127.0625 -12.53125,-12.53125 139.5625,-139.53125 0,-63.249997 -67.78125,0 -109.96875,190.437497 -15.21875,-8.78125 104.875,-181.656247 -96.28125,0 -50.84375,189.781247 -17.09375,-4.5625 49.625,-185.218747 -92.96875,0 0,180.406247 -17.71875,-0.03125 0,-180.406247 z"
       style="fill:none;stroke:#000000;stroke-width:1.30208158;stroke-miterlimit:4;stroke-opacity:1;stroke-dasharray:none"
       inkscape:connector-curvature="0" />
    <path
       id="path3927"
       d="m 2428.8125,-137.41269 0,0.0312 -20.2813,0 0,23.3125 20.2813,0 0,121.25 -886.0625,0 0,177.15625 886.0625,88.5625 177.1563,0 0,-31.3125 9.875,0 0,-106.3125 -9.875,0 0,-73.6875 9.875,0 0,-106.3125 -9.875,0 0,-92.6875 -177.1563,0 z"
       style="fill:none;stroke:#000000;stroke-width:1;stroke-miterlimit:4;stroke-opacity:1;stroke-dasharray:none"
       inkscape:connector-curvature="0" />
  </g>
</svg>
